<?xml version="1.0" encoding="utf-8"?>
<!-- Generator: Adobe Illustrator 24.3.0, SVG Export Plug-In . SVG Version: 6.00 Build 0)  -->
<svg version="1.1" id="Layer_1" xmlns="http://www.w3.org/2000/svg" xmlns:xlink="http://www.w3.org/1999/xlink" x="0px" y="0px"
	 viewBox="0 0 352 352" style="enable-background:new 0 0 352 352;" xml:space="preserve">
<style type="text/css">
	.st0{fill:url(#Layer_2_2_);}
</style>
<linearGradient id="Layer_2_2_" gradientUnits="userSpaceOnUse" x1="20.3022" y1="62.8609" x2="321.9415" y2="281.8845" gradientTransform="matrix(1 0 0 -1 0 351.8898)">
	<stop  offset="0" style="stop-color:#B9D9FF"/>
	<stop  offset="1" style="stop-color:#2F4591"/>
</linearGradient>
<path id="Layer_2_1_" class="st0" d="M352,175.9c0,97.2-78.8,176.1-176,176.1h-0.1C78.7,352,0,273.1,0,175.8S79-0.1,176.4,0
	C273.2,0.1,352,79,352,175.9z M17.6,175.9c-0.9,86.6,71.7,158.4,158,158.6c86.9,0.2,158.9-71.9,159-158.4
	c0.1-86.7-71.9-158.6-158.3-158.8C89.5,17.3,16.8,89.4,17.6,175.9L17.6,175.9z M183.4,24.1c6.3,1,12.2,1.5,17.9,2.9
	c16,4,31.4,10,46,17.7c18.3,9.7,34.9,21.6,47,38.9c8.8,12.5,15.3,25.9,15.5,41.7c0.1,12.9-4.6,23.6-14,32.3
	c-1.5,1.4-2.9,2.8-4.4,4.3c3.9,2.9,7.8,5.5,11.5,8.4c11.8,9.3,16.2,21.7,15.2,36.4c-1.6,25.6-13.4,46.9-28.2,66.9
	c-12.7,17.2-29.9,28.7-48.9,37.8c-12.8,6.1-25.9,11.6-40,13.7c-5.1,0.8-10.3,1-15.4,1.5c-2.7,0.3-2.2-1.7-2.2-3.2
	c0-24.6,0-49.1,0-73.7L183.4,24.1L183.4,24.1z M236.3,261.5c0.6-0.1,1.3-0.1,1.9-0.3c9.3-2.7,18.3-6.5,26.7-11.4
	c9.2-5.4,17-12.1,20.3-22.8c2.4-7.8,3.2-15.8-0.3-23.4c-4.9-10.5-14.2-13.5-24.9-13.4c-7,0.1-13.9,0.9-20.9,1.2
	c-2.2,0.1-2.8,1-2.8,3.2c0,21.6-0.1,43.1-0.1,64.6C236.1,260.1,236.2,260.8,236.3,261.5L236.3,261.5z M236.8,89.7c0,1.5,0,2.6,0,3.7
	c0,7.9-0.1,15.8-0.1,23.6c0,8.6-0.2,17.2-0.1,25.8c0,1,0.9,2.8,1.6,2.9c8.3,1.3,16.7,2,24.9-0.9c5.5-1.7,9.8-6.1,11.4-11.6
	c3.8-11.8-0.2-24.7-10-32.4C256.5,94.5,247,92.2,236.8,89.7z M176.2,328.1c-9.5-1.2-18.8-1.8-27.9-3.6c-8.3-1.7-16.3-4.7-24.4-7.1
	c-1.7-0.5-2.3-1.5-2.2-3.3c1.5-22.9,3.2-45.8,4.3-68.7c0.7-14.9,0.7-29.9,1-44.9c0-1.9-0.5-2.7-2.5-2.8c-8.3-0.6-16.7-1.3-25-2.1
	c-20.4-2.1-38-10.3-52.1-25.2c-10.9-11.4-13.1-25.9-11.8-41c1.4-16.6,9.2-30.6,19.1-43.6c6.5-8.5,13.3-16.5,21.4-23.4
	C91.4,49.5,109,39.8,128,34c15.2-4.7,30.7-8,46.5-9.9c0.6,0,1.2,0,1.8,0L176.2,328.1z M122.3,90.2c-10.7,3.5-21.2,5.6-30.6,11.4
	C80.8,108.3,76.4,117.7,77,130c0.5,11.9,8,19.3,19.8,19c8.7-0.3,17.3-1.5,25.9-2c2.9-0.2,3.7-1.3,3.5-4.1c-0.8-11.2-1.2-22.4-2-33.6
	C123.8,103.1,123,97,122.3,90.2z M119.9,202.8c-1.2,35.7-2.5,70.9-3.7,106.8c-31.2-14.3-56.5-34.8-73.6-64.4s-20.7-61.3-15-94.6
	c0.4,1.1,0.8,2.1,1.3,3.2c11.4,27.2,31.9,42.8,60.7,47.6c7.7,1.3,15.7,1,23.6,1.4C115.3,202.9,117.4,202.8,119.9,202.8z M302.8,161
	c9.5-9.4,16.3-20.5,14.9-35.2c7.3,19.8,10.2,40.9,8.5,61.9c-3-4.9-5.7-10.5-9.6-14.9S307.5,164.9,302.8,161z"/>
</svg>
